<!DOCTYPE svg PUBLIC "-//W3C//DTD SVG 1.1//EN" "http://www.w3.org/Graphics/SVG/1.1/DTD/svg11.dtd">
<!-- Uploaded to: SVG Repo, www.svgrepo.com, Transformed by: SVG Repo Mixer Tools -->
<svg fill="#235e95" version="1.1" id="Capa_1" xmlns="http://www.w3.org/2000/svg" xmlns:xlink="http://www.w3.org/1999/xlink" width="800px" height="800px" viewBox="-21.39 -21.39 135.79 135.79" xml:space="preserve" stroke="#235e95" transform="matrix(1, 0, 0, 1, 0, 0)" stroke-width="0.0009300900000000001">
<g id="SVGRepo_bgCarrier" stroke-width="0" transform="translate(0,0), scale(1)">
<rect x="-21.39" y="-21.39" width="135.79" height="135.79" rx="67.895" fill="#000000" strokewidth="0"/>
</g>
<g id="SVGRepo_tracerCarrier" stroke-linecap="round" stroke-linejoin="round" stroke="#e2c6c6" stroke-width="2.046198"> <g> <g> <path d="M45.666,68.178c6.608,7.958,25.98,5.543,25.98-11.812c0-17.356,0-56.354,0-56.354L56.835,0v23.599v29.027l-0.188,0.366 l-0.959,0.567h-1.149l-0.774-0.757c0,0-27.378-40.583-32.527-47.751S1.988,0.011,1.988,9.916c0,16.844,0,77.932,0,77.932h14.811 c0,0,0-56.439,0-58.998c0-2.559,1.356-1.424,1.92-0.577c0.564,0.847,23.683,35.59,23.683,35.59L45.666,68.178z"/> <path d="M75.494,0.158v54.954c0,16.416-10.707,22.313-20.781,22.368c-8.335-0.356-12.625-5.913-17.766-13.714 c-0.681-1.031-1.328-2.012-1.952-2.908L21.484,39.623v28.932l0.499,0.785l0.199,0.296c0.575,0.819,1.169,1.722,1.797,2.675 c4.949,7.512,13.233,20.082,30.313,20.694l0.277,0.005c21.463,0,36.452-15.584,36.452-37.896V0.158H75.494z"/> </g> </g> </g>
<g id="SVGRepo_iconCarrier"> <g> <g> <path d="M45.666,68.178c6.608,7.958,25.98,5.543,25.98-11.812c0-17.356,0-56.354,0-56.354L56.835,0v23.599v29.027l-0.188,0.366 l-0.959,0.567h-1.149l-0.774-0.757c0,0-27.378-40.583-32.527-47.751S1.988,0.011,1.988,9.916c0,16.844,0,77.932,0,77.932h14.811 c0,0,0-56.439,0-58.998c0-2.559,1.356-1.424,1.92-0.577c0.564,0.847,23.683,35.59,23.683,35.59L45.666,68.178z"/> <path d="M75.494,0.158v54.954c0,16.416-10.707,22.313-20.781,22.368c-8.335-0.356-12.625-5.913-17.766-13.714 c-0.681-1.031-1.328-2.012-1.952-2.908L21.484,39.623v28.932l0.499,0.785l0.199,0.296c0.575,0.819,1.169,1.722,1.797,2.675 c4.949,7.512,13.233,20.082,30.313,20.694l0.277,0.005c21.463,0,36.452-15.584,36.452-37.896V0.158H75.494z"/> </g> </g> </g>
</svg>